<mxfile host="app.diagrams.net" agent="Mozilla/5.0 (Windows NT 10.0; Win64; x64) AppleWebKit/537.36 (KHTML, like Gecko) Chrome/133.0.0.0 Safari/537.36" version="26.0.7">
  <diagram name="Page-1" id="NlV2WmkHrMZjzF95XeIr">
    <mxGraphModel dx="1120" dy="460" grid="0" gridSize="10" guides="1" tooltips="1" connect="1" arrows="1" fold="1" page="1" pageScale="1" pageWidth="850" pageHeight="1100" math="0" shadow="0">
      <root>
        <mxCell id="0" />
        <mxCell id="1" parent="0" />
        <mxCell id="PdO4jZp0xsO0EJYQ6yz1-5" style="edgeStyle=orthogonalEdgeStyle;rounded=0;orthogonalLoop=1;jettySize=auto;html=1;" edge="1" parent="1" source="PdO4jZp0xsO0EJYQ6yz1-1" target="PdO4jZp0xsO0EJYQ6yz1-4">
          <mxGeometry relative="1" as="geometry">
            <mxPoint x="217.5" y="311" as="targetPoint" />
          </mxGeometry>
        </mxCell>
        <mxCell id="PdO4jZp0xsO0EJYQ6yz1-1" value="User_Service&lt;div&gt;Module_list :&amp;nbsp;&lt;/div&gt;&lt;div&gt;Customer,&amp;nbsp;&lt;/div&gt;&lt;div&gt;Seller,&lt;span style=&quot;background-color: transparent; color: light-dark(rgb(0, 0, 0), rgb(255, 255, 255));&quot;&gt;&amp;nbsp;&lt;/span&gt;&lt;/div&gt;&lt;div&gt;&lt;span style=&quot;background-color: transparent; color: light-dark(rgb(0, 0, 0), rgb(255, 255, 255));&quot;&gt;Address&lt;/span&gt;&lt;/div&gt;" style="whiteSpace=wrap;html=1;aspect=fixed;" vertex="1" parent="1">
          <mxGeometry x="147" y="101" width="141" height="141" as="geometry" />
        </mxCell>
        <mxCell id="PdO4jZp0xsO0EJYQ6yz1-2" value="Product_Service&lt;br&gt;Module :-&amp;nbsp;&lt;div&gt;Product,&lt;br&gt;Vendor,&amp;nbsp;&lt;br&gt;Category,&lt;/div&gt;&lt;div&gt;wishlist&lt;/div&gt;" style="whiteSpace=wrap;html=1;aspect=fixed;" vertex="1" parent="1">
          <mxGeometry x="351" y="103" width="141" height="141" as="geometry" />
        </mxCell>
        <mxCell id="PdO4jZp0xsO0EJYQ6yz1-3" value="Order_Service&lt;div&gt;Module :&lt;/div&gt;&lt;div&gt;Orders&lt;/div&gt;" style="whiteSpace=wrap;html=1;aspect=fixed;" vertex="1" parent="1">
          <mxGeometry x="558" y="101" width="143" height="143" as="geometry" />
        </mxCell>
        <mxCell id="PdO4jZp0xsO0EJYQ6yz1-4" value="" style="shape=cylinder3;whiteSpace=wrap;html=1;boundedLbl=1;backgroundOutline=1;size=15;" vertex="1" parent="1">
          <mxGeometry x="187.5" y="362" width="60" height="80" as="geometry" />
        </mxCell>
        <mxCell id="PdO4jZp0xsO0EJYQ6yz1-6" value="" style="shape=cylinder3;whiteSpace=wrap;html=1;boundedLbl=1;backgroundOutline=1;size=15;" vertex="1" parent="1">
          <mxGeometry x="391.5" y="360" width="60" height="80" as="geometry" />
        </mxCell>
        <mxCell id="PdO4jZp0xsO0EJYQ6yz1-7" value="" style="shape=cylinder3;whiteSpace=wrap;html=1;boundedLbl=1;backgroundOutline=1;size=15;" vertex="1" parent="1">
          <mxGeometry x="599.5" y="355" width="60" height="80" as="geometry" />
        </mxCell>
        <mxCell id="PdO4jZp0xsO0EJYQ6yz1-8" style="edgeStyle=orthogonalEdgeStyle;rounded=0;orthogonalLoop=1;jettySize=auto;html=1;entryX=0.5;entryY=0;entryDx=0;entryDy=0;entryPerimeter=0;" edge="1" parent="1" source="PdO4jZp0xsO0EJYQ6yz1-2" target="PdO4jZp0xsO0EJYQ6yz1-6">
          <mxGeometry relative="1" as="geometry" />
        </mxCell>
        <mxCell id="PdO4jZp0xsO0EJYQ6yz1-9" style="edgeStyle=orthogonalEdgeStyle;rounded=0;orthogonalLoop=1;jettySize=auto;html=1;entryX=0.5;entryY=0;entryDx=0;entryDy=0;entryPerimeter=0;" edge="1" parent="1" source="PdO4jZp0xsO0EJYQ6yz1-3" target="PdO4jZp0xsO0EJYQ6yz1-7">
          <mxGeometry relative="1" as="geometry" />
        </mxCell>
      </root>
    </mxGraphModel>
  </diagram>
</mxfile>
